<svg xmlns="http://www.w3.org/2000/svg" width="279.643" height="240.208" viewBox="0 0 279.643 240.208"><defs><style>.a{fill:#ffeeb4;}.b,.f,.h,.k,.l{fill:none;}.b{stroke:#112349;}.c{fill:#c88d6d;}.d{fill:#7a67fa;}.e{fill:#332c30;}.f{stroke:#323166;stroke-miterlimit:10;stroke-width:0.955px;}.g{fill:#a96448;}.h,.k{stroke:#1a2328;stroke-linecap:round;stroke-linejoin:round;}.h{stroke-width:0.707px;}.i{fill:#1a2328;}.j{fill:#fdfcff;}.k{stroke-width:0.642px;}.m{fill:#e79cfb;}.n{stroke:none;}</style></defs><g transform="translate(-631.395 -1739.602)"><circle class="a" cx="113.637" cy="113.637" r="113.637" transform="translate(631.939 1752.536)"/><g class="b" transform="translate(683.764 1749.031)"><circle class="n" cx="113.637" cy="113.637" r="113.637"/><circle class="l" cx="113.637" cy="113.637" r="113.137"/></g><g transform="translate(631.395 1739.602)"><g transform="translate(152.782 65.065)"><g transform="translate(0 23.287)"><path class="c" d="M1071.078,401.483l13.112,48.193a9.671,9.671,0,0,1-7.657,11.969h0c-4.85.866-11.448-3.794-12.846-8.519l-12.147-38.487Z" transform="translate(-1043.533 -375.521)"/><path class="d" d="M1053.274,366.137s13.238.444,20.268,22.861l5.154,24.125-38.058,6.432Z" transform="translate(-1040.639 -366.137)"/></g><g transform="translate(19.346)"><g transform="translate(0 45.38)"><path class="c" d="M1112.575,396.215l-44.333,48.412c-3.392,4.236.656,10.43,4.951,13.747h0a9.705,9.705,0,0,0,14.121-2.473l33.141-48.8Z" transform="translate(-1066.978 -396.215)"/></g><g transform="translate(18.711)"><path class="e" d="M1126.653,337.422c-1.565,8.873-6.012,34.793-7.315,42.391a2.547,2.547,0,0,1-2.518,2.117h-21.81a2.557,2.557,0,0,1-2.509-3.048l8.288-42.384a2.556,2.556,0,0,1,2.508-2.065h20.836A2.548,2.548,0,0,1,1126.653,337.422Z" transform="translate(-1092.452 -334.433)"/><path class="c" d="M1121.918,412.25l12.792-17.643a8.722,8.722,0,0,0,1.673-5.3c-.145-6.861-1.445-23.384-10.476-26.918-11.467-4.488-17.451,5.484-11.966,14.958s5.485,13.462,5.485,13.462l-7.543,9.972Z" transform="translate(-1097.61 -341.561)"/></g></g></g><g transform="translate(94.412 82.763)"><path class="d" d="M1011.55,359.969l20.627,4.148s8.216,21.209,3.553,41.913l-9.881,34.583-47.673,1.11-15.5-56.511-1.505-17.869,29.856-8.816Z" transform="translate(-961.171 -358.527)"/><path class="f" d="M1059.094,424.459s5.721-15.379.91-31.219" transform="translate(-987.168 -367.743)"/></g><g transform="translate(80.506 91.578)"><path class="c" d="M974.826,406.456l-.842,45.1c-.414,5.629-7.726,13.917-13.3,13.059h0a9.672,9.672,0,0,1-8.194-9.96l-.4-42.067Z" transform="translate(-944.853 -380.067)"/><path class="d" d="M956.145,370.529s-11.262,3.035-11.122,20.784l-2.784,31.215,31.017-3.2,5.185-32.969Z" transform="translate(-942.239 -370.529)"/><line class="f" y1="22.565" x2="1.603" transform="translate(31.016 26.235)"/><g transform="translate(14.539 6.305)"><g transform="translate(0 20.119)"><path class="c" d="M1019.685,406.5l-57.652,33.224,7.839,22.631s30.524-24.151,56.906-47.22Z" transform="translate(-962.033 -406.504)"/></g><g transform="translate(51.008)"><circle class="c" cx="13.307" cy="13.307" r="13.307" transform="matrix(0.229, -0.973, 0.973, 0.229, 0, 30.025)"/><path class="c" d="M1047.6,386.385l19.689-7.151a2,2,0,0,1,2.373.815h0a2,2,0,0,1-.578,2.717l-14.665,9.857Z" transform="translate(-1035.757 -379.113)"/></g></g></g><g transform="translate(75.459 0)"><path class="e" d="M22.9,39.166h0C8.077,45.029,3.346,36.682,6.136,29.191A13.377,13.377,0,0,1,7.923,25.9S-2.282,22.562.472,14.228c0,0,1.847-6.346,11.341-2.926,0,0-1.876-5.438,2.1-9.16A8.269,8.269,0,0,1,22.535.584,14.264,14.264,0,0,1,28.994,5.99s4.929-4.556,8.825.419c3.169,4.046-.474,9.8-.474,9.8s6.315-2.341,8.106,1.4S44.7,26.387,36.2,31.74A111.578,111.578,0,0,1,22.9,39.166Z" transform="matrix(-0.259, -0.966, 0.966, -0.259, 11.904, 89.958)"/><path class="e" d="M1027.757,274.2c0,16.6-14.031,33.627-31.338,33.627S966.786,290.8,966.786,274.2s12.325-28.351,29.633-28.351S1027.757,257.6,1027.757,274.2Z" transform="translate(-943.709 -245.851)"/><g transform="translate(71.007 36.075)"><path class="g" d="M1032.044,302.713a8.021,8.021,0,1,0,8.288-7.744A8.022,8.022,0,0,0,1032.044,302.713Z" transform="translate(-1032.04 -294.965)"/></g><path class="c" d="M1019.053,330.23l2.476,25-22.77-1.031,1.742-23.971Z" transform="translate(-952.197 -268.252)"/><path class="g" d="M1021.825,345.734l-18.388-11.79c-.872-.586,3.807-4.794,4.853-4.885l12.358,4.306Z" transform="translate(-953.41 -267.941)"/><path class="c" d="M1009.512,317.667h0c11.35-.37,20.4-9.641,20.412-18.92l-.11-21.892a21.557,21.557,0,0,0-20.826-21.567h0c-11.9-.4-23.958,8.845-24.361,20.744l.28,17.606C985.123,307.255,995.9,317.205,1009.512,317.667Z" transform="translate(-948.445 -248.353)"/><g transform="translate(50.75 34.804)"><path class="h" d="M1028.711,312.235l.722,4.589-2.8.2" transform="translate(-1010.346 -298.279)"/><path class="i" d="M1034.594,305.732a2.008,2.008,0,1,0,2-2.014A2.008,2.008,0,0,0,1034.594,305.732Z" transform="translate(-1012.46 -296.018)"/><path class="i" d="M1010.993,305.771a2.008,2.008,0,1,0,2-2.014A2.008,2.008,0,0,0,1010.993,305.771Z" transform="translate(-1006.195 -296.028)"/><path class="e" d="M1004.461,296.8s.07,1.709,3.333.841a40.386,40.386,0,0,1,5.551-1.269,2.217,2.217,0,0,0,1.831-1.118h0a1,1,0,0,0-.737-1.185,11.581,11.581,0,0,0-6.213.2C1004.344,295.263,1004.461,296.8,1004.461,296.8Z" transform="translate(-1004.461 -293.369)"/><path class="e" d="M1039.9,295.5s-.226,1.592-2.594,1.035a22.326,22.326,0,0,0-4.052-.754,1.275,1.275,0,0,1-1.266-.9h0a.921.921,0,0,1,.581-1,7.327,7.327,0,0,1,4.752-.452C1040.144,294.063,1039.9,295.5,1039.9,295.5Z" transform="translate(-1011.765 -293.235)"/><path class="j" d="M1027.319,323.19h-11.61s1.178,3.432,6.6,3.187S1027.319,323.19,1027.319,323.19Z" transform="translate(-1007.447 -301.187)"/></g><path class="e" d="M997.239,272.68s-4.229,9.44-10.055,14.184l-.8,9.5-12.771-10.084,2.4-12.076Z" transform="translate(-945.522 -252.974)"/><g transform="translate(25.928 37.78)"><path class="c" d="M970.671,305.034a8.021,8.021,0,1,0,8.288-7.744A8.022,8.022,0,0,0,970.671,305.034Z" transform="translate(-970.667 -297.286)"/><g transform="translate(4.421 5.386)"><path class="k" d="M983.8,308.663s-1.031-6.082-7.115-3.331" transform="translate(-976.685 -304.618)"/></g></g><path class="c" d="M991,360.816l26.169,15.064,5.9-15.244-7.285-1.711-16.091-.612Z" transform="translate(-950.138 -275.707)"/><path class="e" d="M1025.417,264.57s-16.166,23.38-43.588,16.387l-4.95-11.464S1003.9,240.355,1025.417,264.57Z" transform="translate(-946.388 -248.267)"/><path class="e" d="M1025.594,264.383s9.8,2.92,12.949,15.191c0,0,3.054-22.89-21.094-25.524Z" transform="translate(-957.159 -248.028)"/></g><g transform="translate(0 12.203)"><path class="l" d="M1060.337,376.315A113.851,113.851,0,1,0,929.283,488.872l-.017-.373a113.488,113.488,0,1,1,80.552-18c0,.144,0,.29.007.435A113.735,113.735,0,0,0,1060.337,376.315Z" transform="translate(-832.636 -262.464)"/><path class="l" d="M1021.835,568.083l-.012.379c.3-.068.606-.135.909-.206l-.007-.377C1022.428,567.95,1022.131,568.017,1021.835,568.083Z" transform="translate(-882.861 -343.546)"/><path class="m" d="M1023.05,561.987l.007.377a113.25,113.25,0,0,0,37.319-16.245c0-.145,0-.291-.006-.435A112.892,112.892,0,0,1,1023.05,561.987Z" transform="translate(-883.187 -337.653)"/><path class="m" d="M981.412,570.953a114.36,114.36,0,0,1-17.221-1.3l.017.373a114.793,114.793,0,0,0,42.314-1.491l.012-.379A113.838,113.838,0,0,1,981.412,570.953Z" transform="translate(-867.561 -343.619)"/><path class="l" d="M1022.4,545.766l-.558,16.441c.3-.067.593-.134.889-.2l-.289-16.257Z" transform="translate(-882.866 -337.67)"/><path class="l" d="M1022.627,544.654l-.028.822.042-.019Z" transform="translate(-883.067 -337.38)"/><path class="l" d="M944.186,416.352l47.672-1.111s13.641,7.16,17.369,40.372c.386,3.441.618,8.578.723,15.014a113.481,113.481,0,1,0-80.552,18l-.243-5.374S925.663,436.076,944.186,416.352Z" transform="translate(-832.769 -262.597)"/><path class="m" d="M1006.352,542.173l.558-16.441-.292.132.292-.132.028-.822.014.8,12.572-5.688-12.572,5.688.289,16.257a112.893,112.893,0,0,0,37.319-16.3c-.105-6.436-.336-11.572-.723-15.014-3.728-33.212-17.369-40.372-17.369-40.372L978.8,471.391c-18.523,19.723-15.031,66.905-15.031,66.905l.243,5.374a114.462,114.462,0,0,0,42.344-1.5Z" transform="translate(-867.379 -317.635)"/></g></g></g></svg>