<svg xmlns="http://www.w3.org/2000/svg" width="280" height="230.064" viewBox="0 0 280 230.064"><defs><style>.a{fill:#f1f6ff;}.b,.c,.j{fill:none;}.b{stroke:#ffa000;}.d{fill:#ce5f31;}.e{fill:#d6642e;}.f{fill:#e1723e;}.g{fill:#fff;}.h{fill:#262127;}.i{fill:#e3a4a6;}.j{stroke:#b07078;stroke-linecap:round;stroke-linejoin:round;stroke-width:0.844px;}.k{fill:#6090e3;}.l{fill:#3767e3;}.m{fill:#2f579e;}.n{fill:#71ca93;}.o{stroke:none;}</style></defs><g transform="translate(-222.272 -1697)"><circle class="a" cx="114.5" cy="114.5" r="114.5" transform="translate(273.272 1697)"/><g class="b" transform="translate(248.272 1699)"><ellipse class="o" cx="114.5" cy="114" rx="114.5" ry="114"/><ellipse class="c" cx="114.5" cy="114" rx="114" ry="113.5"/></g><g transform="translate(222.272 1697)"><path class="c" d="M596.653,674.53H562.616l-3.553,17.5H597.9l1.885-15.377Q598.2,675.616,596.653,674.53Z" transform="translate(-496.495 -466.606)"/><path class="c" d="M544.307,506.842a113.924,113.924,0,1,1,198.507,76.312l.161.374a114.292,114.292,0,1,0-199.038-76.686c0,2.378.081,4.736.224,7.077h.369C544.389,511.579,544.307,509.22,544.307,506.842Z" transform="translate(-492.523 -392.55)"/><path class="c" d="M610.689,674.53h-.647q1.549,1.087,3.136,2.122l.049-.409Q611.947,675.4,610.689,674.53Z" transform="translate(-509.884 -466.606)"/><path class="c" d="M762.429,654.467l0,.088,2.44-.379-2.23-4.7-.206,4.988Z" transform="translate(-549.904 -460.027)"/><path class="c" d="M610.919,674.53q1.258.874,2.539,1.714l.21-1.714Z" transform="translate(-510.114 -466.606)"/><path class="c" d="M728.8,472.969l.032-.517-.349.532C728.587,472.972,728.691,472.972,728.8,472.969Z" transform="translate(-540.989 -413.535)"/><path class="c" d="M625.813,514.051a2.254,2.254,0,0,1,2.254,2.254v4.122l15.624-1.47a2.984,2.984,0,0,1,2.966-2.008,3.074,3.074,0,0,1,2.563,1.391c.01-.312.018-.623.051-.939l1.465-13.732a20.867,20.867,0,0,1-12.911-21.943l1.456-11.633h0c-7.027-9.891-1.351-16.555,1.96-19.287a14.953,14.953,0,0,1,4.666-16.051c7.151-6.007,23.119-3.991,27,5.5a22.647,22.647,0,0,1,1.263,4.068,10.654,10.654,0,0,0,6.319,7.277c16.159,6.285,10.48,19.313,6.087,26.057a6.7,6.7,0,0,1-6.942,11.373,20.812,20.812,0,0,1-1.039,3.292l-3.761,26.112a3.112,3.112,0,0,1,2.848-1.278,2.947,2.947,0,0,1,2.635,2.077l27.547,2.82,0,.054a17.783,17.783,0,0,1,12.512,8.913l0,0,.018.036c.066.119.122.242.184.361l22.363,51.87a113.922,113.922,0,1,0-198.507-76.312c0,2.378.082,4.736.225,7.077h81.15Z" transform="translate(-492.654 -392.681)"/><path class="d" d="M684.572,562.47a3.074,3.074,0,0,0-2.563-1.391,2.984,2.984,0,0,0-2.966,2.008l5.524-.519C684.566,562.535,684.57,562.5,684.572,562.47Z" transform="translate(-528.005 -436.811)"/><path class="d" d="M726.754,563.431a2.947,2.947,0,0,0-2.635-2.077,3.112,3.112,0,0,0-2.848,1.278l-.033.234Z" transform="translate(-539.087 -436.879)"/><path class="d" d="M695.845,581.284c.349.023.718.034,1.1.034,6.45,0,17.357-3.345,18.769-16.493a2.489,2.489,0,0,0-.087-.932l-5.516-.565-.274,1.9a12.708,12.708,0,0,1-19.152,9.081,10.13,10.13,0,0,1-4.521-4.634,12.642,12.642,0,0,1-1.643-6.581l-5.524.519a2.575,2.575,0,0,0-.12.7C678.768,569.748,682.162,580.286,695.845,581.284Z" transform="translate(-527.961 -437.341)"/><g transform="translate(101.41 160.525)"><path class="e" d="M712.712,701.556l-10.58.7Q707.486,702.151,712.712,701.556Z" transform="translate(-635.479 -634.229)"/><path class="e" d="M613.883,674.53l-.21,1.713-.05.409-1.885,15.377h20.954l.184-5.276.014-.393.413-11.829H613.883Z" transform="translate(-611.739 -627.132)"/><path class="e" d="M697.5,698.153l-3.316.323A2.294,2.294,0,0,1,695.451,701a2.349,2.349,0,0,1-.109.367c.782.016,1.564.029,2.349.029.129,0,.258,0,.387,0l-.065-.368Z" transform="translate(-633.393 -633.336)"/><path class="e" d="M745.351,615.128l-2.317-4.878-2.941,36.562h.007l16.463-2.646.206-4.988h0Z" transform="translate(-645.449 -610.249)"/></g><g transform="translate(122.364 126.276)"><path class="f" d="M768.084,628.13l-22.363-51.87c-.062-.119-.119-.243-.184-.361l-.018-.036h0A17.784,17.784,0,0,0,733,566.951l0-.054-27.547-2.82a2.488,2.488,0,0,1,.087.932c-1.412,13.147-12.319,16.493-18.769,16.493-.383,0-.752-.011-1.1-.034-13.683-1-17.077-11.536-16.967-16.971a2.576,2.576,0,0,1,.12-.7l-15.624,1.47V643.2a2.254,2.254,0,0,1-2.254,2.253H640.767l-.413,11.83-.014.393-.184,5.277h7.113c-.119-.108-.233-.215-.344-.324a8.821,8.821,0,0,1-2.186-3.26c-.053-.145-.1-.292-.138-.439-.887-3.06.437-6.382,4.028-9.294a18.346,18.346,0,0,1,6.1-3.278,16.754,16.754,0,0,1,14.143,1.845,17.688,17.688,0,0,1,2.784,2.2l.024-.14,9.169-1.322.908,5.128,1.561,8.809.508,2.87.065.368.019.1,1.949-.13,10.58-.7a113.518,113.518,0,0,0,32.866-8.823h0a114.43,114.43,0,0,0,36.185-25.117c.935-.963,1.858-1.939,2.759-2.934Zm-37.77,3.924,0-.088-16.463,2.646h-.007l2.941-36.562,2.317,4.879,11.419,24.048h0l2.23,4.7Z" transform="translate(-640.156 -563.802)"/><path class="f" d="M693.282,576.657a12.768,12.768,0,0,1-4.521-4.634A10.13,10.13,0,0,0,693.282,576.657Z" transform="translate(-652.921 -565.961)"/></g><path class="g" d="M688.169,522.3l-7.3-1.142a5.552,5.552,0,0,0,4.161,5.27,12.954,12.954,0,0,0,2.657.4c5.225.208,6.864-3.525,6.864-3.525Z" transform="translate(-528.484 -426.327)"/><g transform="translate(143.271 38.671)"><path class="h" d="M694.327,542.642l-.772-.1a20.868,20.868,0,0,1-5.175-1.335l-.7,6.54c14.151,5.081,21.324-4.263,24.682-11.8A20.83,20.83,0,0,1,694.327,542.642Z" transform="translate(-673.546 -468.884)"/><path class="h" d="M713.078,465.241l-.032.517c-.1,0-.209,0-.316.015l.349-.532a10.654,10.654,0,0,1-6.319-7.277A22.717,22.717,0,0,0,705.5,453.9c-3.885-9.489-19.853-11.505-27-5.5a14.955,14.955,0,0,0-4.667,16.051c-3.31,2.733-8.986,9.4-1.959,19.287h0l.942-7.525a9.611,9.611,0,0,1,3.633-6.4,20.374,20.374,0,0,0,1.855,2.276,11.009,11.009,0,0,0,3.864,2.6c5.936,2.45,13.995.774,17.271-.089a5.794,5.794,0,0,1,3.046.018l2.245.631a14.15,14.15,0,0,0,2.5,10.884l-1.1,9.362,2.276.268a6.7,6.7,0,0,1,6.771-5.874,6.978,6.978,0,0,1,.718.049,6.676,6.676,0,0,1,3.282,1.367C723.559,484.554,729.237,471.526,713.078,465.241Z" transform="translate(-668.51 -444.995)"/><path class="h" d="M700.243,507.239a1.7,1.7,0,1,0,1.781-1.619A1.7,1.7,0,0,0,700.243,507.239Z" transform="translate(-676.844 -460.916)"/><path class="h" d="M680.428,502.955a1.7,1.7,0,1,0,1.62,1.78A1.7,1.7,0,0,0,680.428,502.955Z" transform="translate(-671.173 -460.216)"/><path class="h" d="M706.384,498.393a1.559,1.559,0,0,0,.184-3.1l-7.607-1.237a1.558,1.558,0,1,0-.5,3.076l7.607,1.237A1.642,1.642,0,0,0,706.384,498.393Z" transform="translate(-676.033 -457.876)"/><path class="h" d="M682.734,492.228a1.544,1.544,0,0,0-.675-.292l-4.651-.756a1.559,1.559,0,1,0-.5,3.077l4.651.755a1.51,1.51,0,0,0,.173.01c.047,0,.1.01.142.009a1.553,1.553,0,0,0,.858-2.8Z" transform="translate(-670.372 -457.119)"/></g><g transform="translate(126.542 63.485)"><path class="i" d="M682.333,678.052l-9.169,1.322-.024.14a17.684,17.684,0,0,0-2.784-2.2,16.755,16.755,0,0,0-14.143-1.845,18.347,18.347,0,0,0-6.1,3.278c-3.592,2.912-4.915,6.234-4.028,9.294.043.147.085.294.138.439a8.821,8.821,0,0,0,2.186,3.26c.111.109.225.217.344.324h31.715a2.29,2.29,0,0,1,1.015.243l3.316-.323-1.561-8.809Z" transform="translate(-645.823 -530.132)"/><path class="i" d="M719.784,500.136a6.676,6.676,0,0,0-3.282-1.367,6.987,6.987,0,0,0-.718-.049,6.635,6.635,0,0,0-1.251.1,6.706,6.706,0,0,0-5.521,5.779l-2.276-.268,1.1-9.362a14.15,14.15,0,0,1-2.5-10.884l-2.245-.631a5.794,5.794,0,0,0-3.046-.018c-3.276.863-11.335,2.54-17.271.089a11.01,11.01,0,0,1-3.864-2.6,20.365,20.365,0,0,1-1.855-2.276,9.611,9.611,0,0,0-3.633,6.4l-.942,7.525-1.456,11.633a20.867,20.867,0,0,0,12.911,21.943l-1.465,13.732c-.033.316-.04.627-.052.939,0,.032,0,.065-.005.1a12.725,12.725,0,0,0,25.315,2.135l.275-1.9.033-.234L711.8,514.8a20.814,20.814,0,0,0,1.039-3.292,6.7,6.7,0,0,0,6.942-11.373Zm-27.255.019a1.7,1.7,0,1,1,1.62,1.78A1.7,1.7,0,0,1,692.529,500.155Zm-2.259-8.85a1.557,1.557,0,0,1,1.789-1.287l7.607,1.237a1.559,1.559,0,0,1-.184,3.1,1.642,1.642,0,0,1-.316-.019l-7.607-1.237A1.558,1.558,0,0,1,690.269,491.305Zm-15.892-2.122a1.559,1.559,0,0,1,1.788-1.29l4.651.756a1.578,1.578,0,0,1,1.289,1.787,1.559,1.559,0,0,1-1.472,1.308c-.047,0-.1-.007-.142-.009a1.509,1.509,0,0,1-.173-.01l-4.651-.755A1.559,1.559,0,0,1,674.377,489.183Zm2.228,9.008a1.7,1.7,0,1,1,1.62,1.78A1.7,1.7,0,0,1,676.6,498.192Zm5.8,17.073a5.552,5.552,0,0,1-4.161-5.27l7.3,1.142,6.381,1s-1.639,3.733-6.864,3.525A12.954,12.954,0,0,1,682.4,515.265Zm.864,17.435.7-6.54a20.867,20.867,0,0,0,5.175,1.335l.772.1a20.831,20.831,0,0,0,18.038-6.687C704.59,528.436,697.417,537.78,683.266,532.7Z" transform="translate(-652.4 -478.647)"/><path class="j" d="M683.116,565.417l-.86,3.211s-.015,2.092,3.019,1.649" transform="translate(-652.54 -542.363)"/></g><g transform="translate(123.508 121.37)"><path class="k" d="M680.406,698.5a2.289,2.289,0,0,0-1.015-.243H644.028a2.313,2.313,0,0,0-2.3,2.144c0,.059-.018.116-.018.176a2.321,2.321,0,0,0,2.32,2.321h35.363a2.316,2.316,0,0,0,2.167-1.509,2.208,2.208,0,0,0,.154-.812A2.312,2.312,0,0,0,680.406,698.5Z" transform="translate(-641.708 -594.209)"/><path class="k" d="M653.108,564.626v76.822a2.253,2.253,0,0,1-2.254,2.253h2.907a2.254,2.254,0,0,0,2.254-2.253V559.4a2.254,2.254,0,0,0-2.254-2.254h-2.906a2.253,2.253,0,0,1,2.253,2.254v5.224Z" transform="translate(-644.11 -557.148)"/></g><g transform="translate(0 121.37)"><path class="l" d="M629.191,698.262h-43.98a2.32,2.32,0,0,1,0,4.641h43.98a2.321,2.321,0,0,1-2.321-2.321c0-.06.013-.117.018-.176A2.313,2.313,0,0,1,629.191,698.262Z" transform="translate(-503.362 -594.209)"/><path class="l" d="M604.463,557.148h-128a2.253,2.253,0,0,0-2.253,2.254v82.046a2.253,2.253,0,0,0,2.253,2.253h36.807L523.4,597.37a2.9,2.9,0,0,1,2.829-2.277h20.427a2.87,2.87,0,0,1,2.34,1.213l29.227,43.629,2.524,3.767h23.712a2.253,2.253,0,0,0,2.254-2.253V559.4A2.253,2.253,0,0,0,604.463,557.148Z" transform="translate(-474.21 -557.148)"/></g><path class="m" d="M601.776,653.882l-29.227-43.629a2.863,2.863,0,0,1,.5,2.259l-3.3,16.272-.1.5-5.76,28.364H604.3Z" transform="translate(-497.761 -449.725)"/><path class="n" d="M568.5,674.716H549.215l3.553-17.5,5.76-28.364.1-.5,3.3-16.272a2.863,2.863,0,0,0-.5-2.259v0h0a2.867,2.867,0,0,0-2.338-1.211H538.669a2.9,2.9,0,0,0-2.829,2.277l-10.131,46.332-4.073,18.625a2.9,2.9,0,0,0,2.829,3.515H568.5a2.32,2.32,0,1,0,0-4.641Z" transform="translate(-486.647 -449.293)"/></g></g></svg>