<svg xmlns="http://www.w3.org/2000/svg" width="280" height="228.516" viewBox="0 0 280 228.516"><defs><style>.a{fill:#abe38a;}.b,.n{fill:none;}.b{stroke:#ff3e46;}.c{fill:#fff;}.d{fill:#fdeeea;}.e{fill:#7393ff;}.f{fill:#f1d5ce;}.g{fill:#ffc9bd;}.h{fill:#ff9184;}.i{fill:#ff6c63;}.j{fill:#954b55;}.k{fill:#ffb1a7;}.l{fill:#1b172c;}.m{fill:#793641;}.o{fill:#ffbd9a;}.p{fill:#007bde;}.q{fill:#0086ff;}.r{fill:#00b1ff;}.s{fill:#55382c;}.t{fill:#061418;}.u{fill:#1c2e34;}.v{fill:#55382e;}.w{stroke:none;}</style></defs><g transform="translate(-945 -1696.72)"><circle class="a" cx="114.125" cy="114.125" r="114.125" transform="translate(996.75 1696.72)"/><g class="b" transform="translate(967.188 1696.72)"><circle class="w" cx="112.781" cy="112.781" r="112.781"/><circle class="n" cx="112.781" cy="112.781" r="112.281"/></g><g transform="translate(945 1696.985)"><g transform="translate(0 4.205)"><g transform="translate(5.328)"><rect class="c" width="144.099" height="102.561" rx="2.363"/></g><g transform="translate(0 33.114)"><rect class="d" width="153.663" height="2.325"/></g><g transform="translate(0 65.196)"><rect class="d" width="153.663" height="2.325"/></g><g transform="translate(20.602 10.693)"><circle class="e" cx="8.719" cy="8.719" r="8.719"/></g><g transform="translate(18.883 39.796)"><circle class="e" cx="8.719" cy="8.719" r="8.719" transform="translate(0 17.003) rotate(-77.162)"/></g><g transform="translate(20.602 73.501)"><circle class="e" cx="8.719" cy="8.719" r="8.719"/></g><g transform="translate(42.733 15.057)"><path class="f" d="M1331.074,558.893H1253.13a.582.582,0,0,1,0-1.164h77.944a.582.582,0,0,1,0,1.164Z" transform="translate(-1252.549 -557.729)"/><g transform="translate(0 6.099)"><path class="f" d="M1264.692,565.335H1253.13a.582.582,0,0,1,0-1.164h11.562a.582.582,0,1,1,0,1.164Z" transform="translate(-1252.549 -564.171)"/></g></g><g transform="translate(42.733 46.202)"><path class="f" d="M1331.074,591.791H1253.13a.582.582,0,0,1,0-1.164h77.944a.582.582,0,0,1,0,1.164Z" transform="translate(-1252.549 -590.627)"/><g transform="translate(0 6.1)"><path class="f" d="M1294.44,598.234h-41.31a.582.582,0,0,1,0-1.164h41.31a.582.582,0,0,1,0,1.164Z" transform="translate(-1252.549 -597.07)"/></g></g><g transform="translate(42.733 78.512)"><path class="f" d="M1270.162,625.918H1253.13a.582.582,0,0,1,0-1.164h17.032a.582.582,0,1,1,0,1.164Z" transform="translate(-1252.549 -624.754)"/><g transform="translate(0 6.1)"><path class="f" d="M1331.074,632.361H1253.13a.582.582,0,0,1,0-1.164h77.944a.582.582,0,0,1,0,1.164Z" transform="translate(-1252.549 -631.197)"/></g></g><g transform="translate(25.101 16.085)"><path class="c" d="M1237.121,565.47a.72.72,0,0,1-.408-.127l-2.472-1.685a.724.724,0,1,1,.816-1.2l1.94,1.323,4.1-4.72a.724.724,0,0,1,1.094.948l-4.521,5.209A.729.729,0,0,1,1237.121,565.47Z" transform="translate(-1233.925 -558.815)"/></g><g transform="translate(25.101 46.833)"><path class="c" d="M1237.121,597.948a.727.727,0,0,1-.408-.126l-2.472-1.685a.724.724,0,1,1,.816-1.2l1.94,1.323,4.1-4.722a.725.725,0,0,1,1.094.951l-4.521,5.206A.724.724,0,0,1,1237.121,597.948Z" transform="translate(-1233.925 -591.293)"/></g><g transform="translate(25.101 78.893)"><path class="c" d="M1237.121,631.813a.728.728,0,0,1-.408-.126L1234.241,630a.724.724,0,1,1,.816-1.2l1.94,1.324,4.1-4.721a.724.724,0,0,1,1.094.948l-4.521,5.209A.727.727,0,0,1,1237.121,631.813Z" transform="translate(-1233.925 -625.157)"/></g><g transform="translate(227.064 77.503)"><path class="e" d="M1436.306,628.294h21.27a5.14,5.14,0,0,0,5.14-5.141h0a5.141,5.141,0,0,0-5.14-5.142h-21.27a5.142,5.142,0,0,0-5.141,5.142h0A5.141,5.141,0,0,0,1436.306,628.294Z" transform="translate(-1431.165 -618.011)"/><g transform="translate(8.519 3.751)"><g transform="translate(11.771 0.037)"><path class="c" d="M1452.6,623.38a1.372,1.372,0,1,0,1.377-1.368A1.371,1.371,0,0,0,1452.6,623.38Z" transform="translate(-1452.596 -622.012)"/></g><g transform="translate(5.886 0.018)"><path class="c" d="M1446.38,623.36a1.372,1.372,0,1,0,1.376-1.368A1.372,1.372,0,0,0,1446.38,623.36Z" transform="translate(-1446.38 -621.992)"/></g><path class="c" d="M1440.163,623.341a1.372,1.372,0,1,0,1.377-1.368A1.372,1.372,0,0,0,1440.163,623.341Z" transform="translate(-1440.163 -621.973)"/></g></g></g><g transform="translate(116.752 92.499)"><g transform="translate(0 9.232)"><g transform="translate(0 8.381)"><path class="g" d="M1340.432,653.595l-10.8-5.4s-8.815-.65-14.172.515a1.016,1.016,0,0,0-.783,1.23h0a1.011,1.011,0,0,0,1.093.769l4.946-.542-2.663,1.81a1.133,1.133,0,0,0,.146,1.957h0a1.118,1.118,0,0,0,1.027-.024c1.48-.818,6.13-2.95,10.664-.4l-4.229,1.9a1.341,1.341,0,0,0-.443,2.125h0a1.34,1.34,0,0,0,1.165.428l3.935-.51s4.63,1.887,8.917-.171Z" transform="translate(-1314.647 -648.013)"/></g><g transform="translate(22.119)"><path class="h" d="M1376.941,639.16c-3.422,8.381-8.316,25.072-8.316,25.072L1341.586,651.5l-3.576,9.282,22.939,15.663,25.09-1.047,1.861-19.624Z" transform="translate(-1338.01 -639.16)"/></g></g><g transform="translate(59.425)"><path class="h" d="M1383.554,633.176a13.825,13.825,0,0,0-4.514,5.465l-1.625,46.835s28.744,6.052,44.355-.922c0,0-.439-39.224-9.332-49.605,0,0-2.8-5.513-17.054-5.539A19.55,19.55,0,0,0,1383.554,633.176Z" transform="translate(-1377.415 -629.409)"/><g transform="translate(3.176 17.586)"><rect class="i" width="0.873" height="32.949" transform="translate(0 0.055) rotate(-3.608)"/></g></g><g transform="translate(23.28 7.768)"><g transform="translate(0 22.806)"><path class="g" d="M1351.2,675.909l-.395-8.074s-2.894-6.045-5.534-6.13a8.576,8.576,0,0,0-5.676,2.628,1.274,1.274,0,0,0,.336,2.02,11.72,11.72,0,0,1,4.148,3.184s-1.277,6.513.879,9.194c1.1,1.363,7.549,2.9,7.549,2.9Z" transform="translate(-1339.237 -661.703)"/></g><g transform="translate(11.728)"><path class="h" d="M1395.759,637.614l-5.182,32.833-38.953,1.688v13.778l41.89-1.014a4.519,4.519,0,0,0,3.68-1.318l.425.2s11.346.192,14.533-38.544Z" transform="translate(-1351.625 -637.614)"/><g transform="translate(3.61 6.071)"><path class="i" d="M1355.478,672.755l-.039-.872,34.977-1.581,4.147-26.277.862.137-4.258,26.979Z" transform="translate(-1355.438 -644.026)"/></g><g transform="translate(38.839 32.348)"><rect class="i" width="0.873" height="5.624" transform="translate(0 0.837) rotate(-73.503)"/></g><g transform="translate(46.96 17.9)"><path class="i" d="M1401.768,687.2l-.541-.684,1.762-1.392a20.575,20.575,0,0,0,6.664-11.07l3.929-17.532.85.19-3.928,17.531a21.444,21.444,0,0,1-6.962,11.554Z" transform="translate(-1401.227 -656.521)"/></g></g></g></g><g transform="translate(172.189 53.347)"><g transform="translate(0 6.903)"><path class="j" d="M1376.305,597.592s.971,4.633,0,7.456-4.063,4.149-2.675,11.52-.093,7.544-.427,9.627c0,0,29.595,2.786,44.415-4.814,0,0-2.506-4.3-5.282-9.073s-3.819-12.619-3.819-12.619l-11.349-4.344Z" transform="translate(-1373.203 -595.345)"/></g><g transform="translate(3.955)"><g transform="translate(6.118)"><path class="j" d="M1383.9,591.734c-.339-.106.977-2.055,1.315-2.163,5.268-1.682,16.523-3.908,22.245,5.344,4.206,6.8-.016,19.589-8.855,23.459-8.419,3.687-6.986-24.225-6.986-24.225Z" transform="translate(-1383.844 -588.054)"/></g><g transform="translate(0 17.321)"><path class="k" d="M1385.706,610.028a4.177,4.177,0,1,1-4.646-3.649A4.177,4.177,0,0,1,1385.706,610.028Z" transform="translate(-1377.381 -606.349)"/></g><g transform="translate(9.763 26.646)"><path class="g" d="M1387.693,621.714l1.032,9.045c.356,3.177,2.505,4.657,5.629,4.281h0c2.667-.32,5.007-2,5.02-4.685l-2.31-14.156Z" transform="translate(-1387.693 -616.199)"/></g><g transform="translate(9.638 28.125)"><path class="l" d="M1388.324,627.388c6.346-.55,9.609-9.627,9.609-9.627l-10.372,3.111Z" transform="translate(-1387.561 -617.761)"/></g><g transform="translate(1.345 4.013)"><path class="g" d="M1390.054,621.769h0c-5.36.285-10-3.715-10.379-8.084l-.834-10.316a10.19,10.19,0,0,1,8.935-11h0c5.588-.671,11.641,3.2,12.312,8.784l.581,8.3A11.138,11.138,0,0,1,1390.054,621.769Z" transform="translate(-1378.802 -592.293)"/></g><g transform="translate(17.427 10.462)"><path class="j" d="M1396.614,600.189c-2.545,3.8,1.611,9.193,1.611,9.193l7.851-9.493S1398.121,597.938,1396.614,600.189Z" transform="translate(-1395.789 -599.104)"/></g><g transform="translate(19.833 16.063)"><path class="g" d="M1406.655,608.7a4.177,4.177,0,1,1-4.646-3.649A4.176,4.176,0,0,1,1406.655,608.7Z" transform="translate(-1398.33 -605.021)"/><g transform="translate(2.528 2.366)"><path class="l" d="M1401.348,611.073a.335.335,0,0,1-.331-.294,3.414,3.414,0,0,1,.712-2.482,2.643,2.643,0,0,1,2.205-.77.333.333,0,0,1-.015.667h-.015a2.107,2.107,0,0,0-1.684.558,2.746,2.746,0,0,0-.54,1.95.334.334,0,0,1-.292.371Z" transform="translate(-1401.001 -607.52)"/></g></g><g transform="translate(2.187 16.319)"><g transform="translate(4.707 7.189)"><path class="l" d="M1386.211,614.783h0l-1.214,0a.33.33,0,0,1-.242-.105.337.337,0,0,1-.089-.251l.08-1.228a.317.317,0,0,1,.355-.311.333.333,0,0,1,.311.354l-.057.874h.86a.334.334,0,0,1,0,.667Z" transform="translate(-1384.663 -612.885)"/></g><g transform="translate(8.844)"><path class="m" d="M1391.348,605.295s-2.323-.091-2.315.656c0,0,.024.507,2.051.555s2.547-.081,2.712-.561S1392.435,605.272,1391.348,605.295Z" transform="translate(-1389.033 -605.291)"/></g><g transform="translate(0 0.279)"><path class="m" d="M1381.577,605.614s1.907-.2,2.093.492c0,0,.112.473-1.558.623s-2.223,0-2.4-.384C1379.516,605.915,1380.669,605.649,1381.577,605.614Z" transform="translate(-1379.691 -605.586)"/></g><g transform="translate(8.586 3.786)"><path class="l" d="M1389.178,610.8a.415.415,0,0,1-.24-.076.42.42,0,0,1-.1-.582,2.189,2.189,0,0,1,1.368-.823,2.857,2.857,0,0,1,2.179.679.418.418,0,1,1-.5.67,2.1,2.1,0,0,0-1.546-.525,1.333,1.333,0,0,0-.814.478A.422.422,0,0,1,1389.178,610.8Z" transform="translate(-1388.76 -609.29)"/></g><g transform="translate(0.64 4.079)"><path class="l" d="M1380.786,611.118a.418.418,0,0,1-.355-.641,1.928,1.928,0,0,1,1.326-.87,1.867,1.867,0,0,1,1.541.71.418.418,0,0,1-.61.573,1.107,1.107,0,0,0-.852-.451,1.14,1.14,0,0,0-.7.483A.419.419,0,0,1,1380.786,611.118Z" transform="translate(-1380.368 -609.599)"/></g><g transform="translate(6.628 9.302)"><path class="l" d="M1387.54,617.212a2.483,2.483,0,0,1-.526-.049.419.419,0,0,1,.19-.815,2.581,2.581,0,0,0,2.454-1.075.419.419,0,0,1,.651.526A3.508,3.508,0,0,1,1387.54,617.212Z" transform="translate(-1386.692 -615.117)"/></g></g></g><g transform="translate(2.046 1.187)"><path class="j" d="M1384.762,589.637s-11.446,4.133-9.074,8.439c1.757,3.191,13.276,5.171,24.218,2.917,0,0,4.994-4.055-1.188-8.258C1398.717,592.735,1395.4,588.046,1384.762,589.637Z" transform="translate(-1375.364 -589.308)"/></g><g transform="translate(11.597 39.101)"><path class="g" d="M1385.452,632.178a21.654,21.654,0,0,1,8.073-2.772,42.371,42.371,0,0,1,10.547.785s-.315,5.1-9.98,6.232a14.622,14.622,0,0,1-5.677-.347C1386.567,635.552,1386.132,634.27,1385.452,632.178Z" transform="translate(-1385.452 -629.354)"/></g></g><g transform="translate(39.1 0)"><path class="n" d="M1359.568,766.4a.512.512,0,0,1-.153-.732.575.575,0,0,1,.768-.147,8.208,8.208,0,0,1,.663.491l1.5-.912-.077-.052a.512.512,0,0,1-.153-.732.574.574,0,0,1,.767-.147c.02.011.194.127.456.328l1.509-.916a.5.5,0,0,1-.031-.615.577.577,0,0,1,.767-.148c.014.009.1.068.243.168l1.753-1.065a7.141,7.141,0,0,0,.8.918l.111-7.5h-7.246v-8.309h2.17c-.441-7.745-.86-19.71-1.053-30.633l-10.115,30.633h1.645l-1.562,8.309h-6.458l-2.518,8.6.207-.079,1.339,4.271q5.091.876,10.33,1.3l4.637-2.818C1359.684,766.477,1359.571,766.4,1359.568,766.4Z" transform="translate(-1238.524 -541.543)"/><path class="n" d="M1387.769,720.281a3.22,3.22,0,0,1-2.469-1.163l-1.147,28.057h1.586v8.309h-5.4l-.117,8.962a13.281,13.281,0,0,0,1.334-.442l1.479,4.718q2.769-.406,5.493-.944l10.247-47.5Z" transform="translate(-1240.488 -541.688)"/><path class="n" d="M1418.125,713.276a27.54,27.54,0,0,0,6.1-.962,12.934,12.934,0,0,0-2.83-1.888A18.135,18.135,0,0,1,1418.125,713.276Z" transform="translate(-1242.507 -541.225)"/><path class="n" d="M1473.276,645.831A114.125,114.125,0,1,0,1249.629,678h20.439a5.576,5.576,0,0,1-5.371-4.08l-9.288-33.367a1.922,1.922,0,0,1,1.851-2.437h47.646a2.29,2.29,0,0,1,2.215,1.709l9.063,34.474h29.454a1.85,1.85,0,0,1,0,3.7H1373.2v2.725l14.639-.3,26.882-1.072c3,9.341,1.657,15.6-1.151,19.771a15.211,15.211,0,0,1,3.816,2.87c7.878-3.119,13.242-10.123,14.913-20.048l6.653-39.5a3.242,3.242,0,0,1,6.393,1.077l-6.653,39.5c-1.987,11.8-8.488,20.464-17.875,24.587a15.02,15.02,0,0,1,.517,1.868l5.55,28.215A113.956,113.956,0,0,0,1473.276,645.831Z" transform="translate(-1233.287 -531.706)"/><path class="n" d="M1327.05,761.853a.578.578,0,0,1,.768-.148c.013.008.1.068.243.167l1.753-1.065a6.81,6.81,0,0,0,1.8,1.715l2.612-8.3h-6.166l1.562-8.308h2.388l11.936-45.977a14.236,14.236,0,0,1,2.129-4.435h-35.121v60.816a113.358,113.358,0,0,0,15.534,6.5l.589-.357A.5.5,0,0,1,1327.05,761.853Z" transform="translate(-1236.799 -540.431)"/><path class="n" d="M1253.026,695.505a114.52,114.52,0,0,0,49.927,58.158V695.505Z" transform="translate(-1233.713 -540.431)"/><path class="n" d="M1385.781,714.328l-.007.162c.054-.053.117-.095.175-.144Z" transform="translate(-1240.784 -541.433)"/><path class="n" d="M1426.547,718.373a34.007,34.007,0,0,1-11.362,1.868h-13.522l-10.142,47a113.557,113.557,0,0,0,41.174-18.171l-5.747-29.219A12.907,12.907,0,0,0,1426.547,718.373Z" transform="translate(-1241.09 -541.649)"/><g transform="translate(144.812 108.032)"><path class="l" d="M1423.378,712.42a27.54,27.54,0,0,1-6.1.962,21.592,21.592,0,0,1-2.429,1.437c-1.979,1-7.1,1.012-11.092.918a12.623,12.623,0,0,0-1.39,3.565l-.134.621h13.522a34.011,34.011,0,0,0,11.362-1.868A12.825,12.825,0,0,0,1423.378,712.42Z" transform="translate(-1386.473 -649.363)"/><path class="l" d="M1452.382,645.862a3.235,3.235,0,0,0-3.736,2.658l-6.653,39.5c-1.671,9.925-7.035,16.93-14.913,20.048a15.024,15.024,0,0,1,3.431,5.615c9.388-4.123,15.888-12.784,17.875-24.587l6.653-39.5A3.241,3.241,0,0,0,1452.382,645.862Z" transform="translate(-1387.796 -645.816)"/><path class="l" d="M1385.94,714.347c-.057.049-.121.091-.175.144l-.179,4.373a3.221,3.221,0,0,0,2.469,1.163h11.01l.237-1.1a14.811,14.811,0,0,1,1.095-3.158c-.675-.02-1.272-.037-1.732-.041Z" transform="translate(-1385.586 -649.466)"/></g><path class="o" d="M1332.78,765.826c3.708,2.431,8.956.691,10.006.3l2.517-8.6h-9.911Z" transform="translate(-1237.961 -543.734)"/><path d="M1330.776,764.482l-1.753,1.065a12.888,12.888,0,0,1,2.251,2.149c.254.076.506.153.761.227l.544-1.727A6.81,6.81,0,0,1,1330.776,764.482Z" transform="translate(-1237.761 -544.104)"/><path d="M1328.077,766.352a.523.523,0,0,1-.121-.115l-.589.357q.849.284,1.706.554A9.263,9.263,0,0,0,1328.077,766.352Z" transform="translate(-1237.673 -544.198)"/><path d="M1343.288,766.608l-1.085,3.706q1.309.257,2.63.486l-1.339-4.271Z" transform="translate(-1238.463 -544.214)"/><path d="M1332.749,766.293l-.544,1.727q4.654,1.338,9.465,2.282l1.085-3.707C1341.705,766.984,1336.458,768.724,1332.749,766.293Z" transform="translate(-1237.931 -544.201)"/><path class="p" d="M1361.738,698.948a9.483,9.483,0,0,1,.684-3.443h-15.158a14.235,14.235,0,0,0-2.129,4.435L1333.2,745.918h9.694l4.942-.262-.077.262h3.943l10.115-30.633C1361.708,709.217,1361.671,703.47,1361.738,698.948Z" transform="translate(-1237.984 -540.431)"/><path class="p" d="M1348.38,748.477l-4.942.262h4.865Z" transform="translate(-1238.529 -543.252)"/><path class="o" d="M1369.783,765.03c2.982,2.9,7.622,2.1,9.887,1.462l.117-8.962h-9.893Z" transform="translate(-1239.932 -543.734)"/><path d="M1369.6,768.015l.039-2.615a7.145,7.145,0,0,1-.8-.918l-1.754,1.065A13.054,13.054,0,0,1,1369.6,768.015Z" transform="translate(-1239.789 -544.104)"/><path d="M1378.93,766.955l-.047,3.651-9.536.062-.365-.979.01-.695a.578.578,0,0,1-.538.055.556.556,0,0,1-.23-.174,11.45,11.45,0,0,0-2.586-2.523.55.55,0,0,1-.121-.115l-1.509.916a13.245,13.245,0,0,1,2.415,2.453.512.512,0,0,1-.123.737.579.579,0,0,1-.546.058.555.555,0,0,1-.229-.174,11.74,11.74,0,0,0-2.51-2.47l-1.5.912a13.481,13.481,0,0,1,2.208,2.288.512.512,0,0,1-.123.737.58.58,0,0,1-.545.057.552.552,0,0,1-.23-.174,12.153,12.153,0,0,0-2.293-2.311l-4.637,2.818q4.536.361,9.164.366a115.056,115.056,0,0,0,16.686-1.217l-1.479-4.718A13.284,13.284,0,0,1,1378.93,766.955Z" transform="translate(-1239.192 -544.198)"/><path d="M1369.779,765.452l-.039,2.615c.04.05.079.094.117.145a.512.512,0,0,1-.123.738l-.007,0-.01.695.365.979,9.535-.062.047-3.651C1377.4,767.551,1372.762,768.356,1369.779,765.452Z" transform="translate(-1239.929 -544.156)"/><g transform="translate(91.264 147.644)"><path class="q" d="M1347.535,748.754h-16.947l-1.562,8.308h22.535l1.563-8.308h-5.588Z" transform="translate(-1329.026 -690.91)"/><path class="q" d="M1421.019,687.656l-26.882,1.072-14.64.3v6.06h-15.471a9.479,9.479,0,0,0-.685,3.443c-.067,4.522-.03,10.268.078,16.337.192,10.923.612,22.887,1.053,30.633h18.78l1.147-28.057.179-4.373.007-.162.169.018,12.724,1.384c.459,0,1.056.021,1.731.041.738.022,1.574.047,2.475.068,3.993.094,9.113.084,11.092-.918a21.543,21.543,0,0,0,2.429-1.437,18.135,18.135,0,0,0,3.27-2.85,16.246,16.246,0,0,0,1.393-1.787C1422.676,703.252,1424.02,697,1421.019,687.656ZM1384.785,712.9l-.7.025-.313-9.161,1-.035.3,8.934.008.226Z" transform="translate(-1330.852 -687.656)"/></g><path class="r" d="M1380.35,757.528h3.47s-1.43-.02-3.47-.042Z" transform="translate(-1240.495 -543.732)"/><path class="r" d="M1365.258,757.062c-.252.051-.552-3.217-.842-8.308h-2.17v8.309h7.246v-.1C1367.288,756.967,1365.6,756.994,1365.258,757.062Z" transform="translate(-1239.531 -543.267)"/><path class="r" d="M1385.941,757.063v-8.308h-1.586l-.34,8.308Z" transform="translate(-1240.69 -543.267)"/><path class="r" d="M1369.9,757.423v.1h9.893v-.042C1376.957,757.451,1372.942,757.416,1369.9,757.423Z" transform="translate(-1239.938 -543.728)"/><path class="r" d="M1380.35,757.021c2.04.022,3.47.042,3.47.042l.34-8.309h-3.7Z" transform="translate(-1240.495 -543.267)"/><path class="r" d="M1365.38,757.062c.339-.067,2.031-.095,4.236-.1l.114-7.683,9.887-.524h-15.078C1364.828,753.845,1365.128,757.113,1365.38,757.062Z" transform="translate(-1239.653 -543.267)"/><path class="r" d="M1369.9,756.961c3.041-.007,7.056.028,9.892.06l.108-8.267-9.887.524Z" transform="translate(-1239.938 -543.267)"/><path class="s" d="M1385.925,704.633l-1,.035.313,9.161.7-.025a3.258,3.258,0,0,1,.293-.237Z" transform="translate(-1240.738 -540.917)"/><path class="s" d="M1386.286,714.07a3.226,3.226,0,0,0-.293.237l.3-.01Z" transform="translate(-1240.796 -541.419)"/><path class="t" d="M1349.641,686.018a1.85,1.85,0,0,0,0-3.7h-29.454l.973,3.7Z" transform="translate(-1237.29 -539.728)"/><path class="u" d="M1313.419,680.281h3.345l-9.063-34.474a2.291,2.291,0,0,0-2.215-1.709H1257.84a1.922,1.922,0,0,0-1.851,2.437l9.288,33.367a5.576,5.576,0,0,0,5.371,4.081h42.771Zm-29.006-11.362a4.112,4.112,0,1,1,4.112-4.112A4.112,4.112,0,0,1,1284.413,668.92Z" transform="translate(-1233.867 -537.692)"/><path class="u" d="M1316.654,686.018h4.317l-.973-3.7h-3.344Z" transform="translate(-1237.102 -539.728)"/><path class="v" d="M1305.762,695.505v58.158q2.423,1.387,4.92,2.658V695.505Z" transform="translate(-1236.522 -540.431)"/><g transform="translate(0 123.004)"><path class="c" d="M1430.736,718.892a15.389,15.389,0,0,0-3.948-7.483,15.217,15.217,0,0,0-3.816-2.87,16.276,16.276,0,0,1-1.393,1.787,13.024,13.024,0,0,1,6.97,9l5.747,29.219q1-.709,1.99-1.439Z" transform="translate(-1242.691 -664.129)"/><path class="c" d="M1399.483,719.01l-.237,1.1L1389,767.6q1.2-.236,2.388-.5l10.141-47,.134-.621a12.623,12.623,0,0,1,1.39-3.565c-.9-.021-1.737-.046-2.475-.068A14.812,14.812,0,0,0,1399.483,719.01Z" transform="translate(-1240.956 -664.518)"/><path class="c" d="M1327.95,765.573a.5.5,0,0,0,.032.615l.979-.6c-.139-.1-.23-.159-.243-.168A.578.578,0,0,0,1327.95,765.573Z" transform="translate(-1237.699 -667.154)"/><path class="c" d="M1369.539,768.061a13.054,13.054,0,0,0-2.51-2.468c-.138-.1-.229-.159-.243-.168a.577.577,0,0,0-.767.148.5.5,0,0,0,.031.615.542.542,0,0,0,.121.115,11.454,11.454,0,0,1,2.586,2.523.558.558,0,0,0,.23.174.578.578,0,0,0,.538-.055l.007,0a.512.512,0,0,0,.123-.737C1369.617,768.155,1369.579,768.111,1369.539,768.061Z" transform="translate(-1239.727 -667.154)"/><path class="c" d="M1364.389,767.181c-.262-.2-.437-.316-.456-.328a.574.574,0,0,0-.767.147.512.512,0,0,0,.152.732l.078.052a11.744,11.744,0,0,1,2.51,2.47.556.556,0,0,0,.229.174.58.58,0,0,0,.547-.058.512.512,0,0,0,.123-.737A13.249,13.249,0,0,0,1364.389,767.181Z" transform="translate(-1239.574 -667.23)"/><path class="c" d="M1361.743,768.771c-.382-.309-.638-.476-.663-.491a.575.575,0,0,0-.768.147.512.512,0,0,0,.153.732s.116.077.293.21a12.145,12.145,0,0,1,2.293,2.311.552.552,0,0,0,.23.174.58.58,0,0,0,.546-.057.512.512,0,0,0,.123-.738A13.483,13.483,0,0,0,1361.743,768.771Z" transform="translate(-1239.423 -667.306)"/><path class="c" d="M1285.785,669.853a4.112,4.112,0,1,0-4.112-4.112A4.111,4.111,0,0,0,1285.785,669.853Z" transform="translate(-1235.239 -661.63)"/><path class="c" d="M1316.5,686.226h-83.87v8.785h139.911v-8.785H1316.5Z" transform="translate(-1232.627 -662.94)"/></g></g></g></g></svg>