<svg xmlns="http://www.w3.org/2000/svg" width="280.196" height="234.666" viewBox="0 0 280.196 234.666"><defs><style>.a{fill:#fde2c7;}.b,.e,.j,.k,.n{fill:none;}.b{stroke:#fd6f39;}.c{fill:#0086ff;}.d{fill:#e88e80;}.e{stroke:#55382c;stroke-miterlimit:10;stroke-width:0.718px;}.f{fill:#eac8ce;}.g{fill:#fff;}.h{fill:#0b0b0b;}.i{fill:#0b181b;}.j{stroke:#021833;stroke-width:0.461px;}.j,.n{stroke-linecap:round;stroke-linejoin:round;}.l{fill:#f9b0a3;}.m{fill:#eaeaea;}.n{stroke:#fff;stroke-width:1.146px;}.o{stroke:none;}</style></defs><g transform="translate(-1277.697 -1698.72)"><circle class="a" cx="114.917" cy="114.917" r="114.917" transform="translate(1327.654 1703.539)"/><g class="b" transform="translate(1277.697 1698.72)"><circle class="o" cx="114.917" cy="114.917" r="114.917"/><circle class="k" cx="114.917" cy="114.917" r="114.417"/></g><g transform="translate(1316.452 1702.852)"><g transform="translate(84.311 79.171)"><path class="c" d="M947.219,861.136s-15.188,0-26.37,11v30.817s53.51.814,53.51,0,.014-32.853.014-32.853A46.233,46.233,0,0,0,947.219,861.136Z" transform="translate(-902.113 -861.136)"/><g transform="translate(0 8.96)"><g transform="translate(0 18.241)"><path class="d" d="M923.7,903.192H908.449a7.253,7.253,0,0,0-7.254,7.253h0a7.254,7.254,0,0,0,7.254,7.254H926.4Z" transform="translate(-901.195 -890.3)"/><path class="d" d="M902.136,906.317l10.25-16.648,14.054,1.9-2.085,18.247Z" transform="translate(-901.239 -889.669)"/><line class="e" x1="9.067" transform="translate(9.669 12.891)"/></g><path class="c" d="M922.391,870.535s-8.256,6.665-16.958,21.34c0,0,1.877,8.492,18.088,9.792Z" transform="translate(-901.393 -870.535)"/></g><g transform="translate(67.574 8.96)"><g transform="translate(0 15.188)"><path class="d" d="M974.77,903.192h15.256a7.253,7.253,0,0,1,7.254,7.253h0a7.254,7.254,0,0,1-7.254,7.254H972.079Z" transform="translate(-972.079 -887.248)"/><path class="d" d="M996.342,906.095l-12.826-19.628-11.438,4.95,2.085,18.248Z" transform="translate(-972.079 -886.467)"/><line class="e" x2="11.976" transform="translate(3.556 15.944)"/></g><path class="c" d="M976.94,870.535s8.256,6.665,16.958,21.34c0,0-1.877,8.492-18.089,9.792Z" transform="translate(-972.253 -870.535)"/></g><g transform="translate(18.736 19.027)"><rect class="f" width="53.51" height="35.572" rx="1.926"/><path class="g" d="M952.033,899.591a3.279,3.279,0,1,1-3.279-3.279A3.279,3.279,0,0,1,952.033,899.591Z" transform="translate(-921.999 -881.805)"/></g></g><g transform="translate(113.043 36.531)"><path class="d" d="M0,0H11.759a0,0,0,0,1,0,0V8.5A3.256,3.256,0,0,1,8.5,11.759H3.256A3.256,3.256,0,0,1,0,8.5V0A0,0,0,0,1,0,0Z" transform="translate(10.87 36.149)"/><path class="h" d="M942.771,854.746s1.707,5.269,11.726,5.086v-7.274h0s-.669,1.354-5.133,1.163C944.858,853.528,942.771,854.746,942.771,854.746Z" transform="translate(-931.868 -818.095)"/><ellipse class="i" cx="14.597" cy="14.974" rx="14.597" ry="14.974" transform="translate(2.056 1.447)"/><g transform="translate(0 5.357)"><g transform="translate(28.346 15.45)"><path class="d" d="M961.993,839.31a2.6,2.6,0,0,1,3.219-.849c2.168.823,1.187,6.087-2.065,6.758a2.571,2.571,0,0,1-2.079-.543S961.867,840.787,961.993,839.31Z" transform="translate(-961.068 -838.234)"/><g transform="translate(0.609 2.026)"><path class="j" d="M964.812,840.418s-1.816-.606-3.1,2.068" transform="translate(-961.707 -840.359)"/></g></g><g transform="translate(0 15.45)"><path class="d" d="M935.711,839.31a2.6,2.6,0,0,0-3.218-.849c-2.168.823-1.188,6.087,2.064,6.758a2.573,2.573,0,0,0,2.08-.543S935.836,840.787,935.711,839.31Z" transform="translate(-931.334 -838.234)"/><g transform="translate(1.588 2.026)"><path class="j" d="M933,840.418s1.815-.606,3.1,2.068" transform="translate(-933 -840.359)"/></g></g><path class="d" d="M961.009,834.018c0,3.374-.348,10.432-2.535,14.622a10.933,10.933,0,0,1-9.9,6.177c-4.453.126-7.769-1.5-10.428-6.606s-2.531-14.13-2.531-14.13,0-12.053,12.56-12.053C961.4,822.027,961.009,834.018,961.009,834.018Z" transform="translate(-931.534 -822.027)"/></g><path class="i" d="M935.894,838.741s4.771-10.91.926-12.7C936.82,826.046,934.069,835.437,935.894,838.741Z" transform="translate(-931.518 -816.857)"/><path class="i" d="M961.935,838.867s-2.682-5.882-.316-10.117C961.618,828.751,963.76,835.563,961.935,838.867Z" transform="translate(-932.702 -816.984)"/><g transform="translate(7.666 19.618)"><g transform="translate(2.4 3.777)"><path class="i" d="M944.19,842.1a1.148,1.148,0,1,1-1.149-1.148A1.149,1.149,0,0,1,944.19,842.1Z" transform="translate(-941.893 -840.948)"/><path class="i" d="M955.34,842.1a1.148,1.148,0,1,1-1.148-1.148A1.148,1.148,0,0,1,955.34,842.1Z" transform="translate(-942.414 -840.948)"/></g><path class="j" d="M948.069,844.776v1.549a.6.6,0,0,0,.718.605l.824-.173" transform="translate(-939.782 -837.35)"/><path class="i" d="M946.335,838.353l-6.959.836s.559-1.846,3.4-2.162S946.335,838.353,946.335,838.353Z" transform="translate(-939.376 -836.986)"/><path class="i" d="M950.884,838.353l6.959.836s-.559-1.846-3.4-2.162S950.884,838.353,950.884,838.353Z" transform="translate(-939.913 -836.986)"/><path class="g" d="M945.025,848.9h7.025s.119,2.615-3.521,2.461S945.025,848.9,945.025,848.9Z" transform="translate(-939.64 -837.542)"/></g><path class="i" d="M936.9,825.776s7.845,9.506,24.449,6.348c0,0,1.461-8.591-7.122-11.217S938.944,824.487,936.9,825.776Z" transform="translate(-931.594 -816.588)"/><path class="i" d="M936.9,825.6s-.162-7.8,7.06-8.969,7.451,2.7,12.564,3c7.631.458,11.113,7.963,4.825,12.315L950.729,825.6Z" transform="translate(-931.594 -816.407)"/><path class="i" d="M936.956,823.67s-7.867.968-3,13.447Z" transform="translate(-931.382 -816.746)"/><g transform="translate(6.863 41.398)"><path class="g" d="M942.541,859.833l5.783,6.51-4.292,4.391-5.5-8.343Z" transform="translate(-938.534 -859.833)"/><path class="g" d="M954.779,860.188,948.8,866.36l4.291,4.391,6.14-8.352Z" transform="translate(-939.013 -859.849)"/></g></g><g transform="translate(11.605 0)"><path class="k" d="M1054.763,893A114.917,114.917,0,1,0,884.794,993.9v-72.78H858.72v-9.261h167.229v9.261h-21.643v67.033A114.8,114.8,0,0,0,1054.763,893Z" transform="translate(-824.928 -778.087)"/><path class="k" d="M926.065,1004.435l-1.25-6.613-4.912.091-11.6-53.687a10.475,10.475,0,0,1,1.815-8.5l-.04-.037a51.691,51.691,0,0,1,7.415-7.565H893.824v75.744a114.094,114.094,0,0,0,26.264,8.761A15.663,15.663,0,0,1,926.065,1004.435Z" transform="translate(-828.145 -785.093)"/><path class="k" d="M1005.4,928.124H982.45a51.691,51.691,0,0,1,7.415,7.565l-.04.037a10.479,10.479,0,0,1,1.816,8.5L978.83,997.914l-4.689-.088-1.249,6.609a16.461,16.461,0,0,1,5.236,6.156,114.224,114.224,0,0,0,27.274-11.744V928.124Z" transform="translate(-831.837 -785.093)"/><path class="l" d="M927.583,1007.842c.136-.1.214-.144.214-.144h7.074l-.513-6.618-8.025.149Z" transform="translate(-829.663 -788.499)"/><path d="M921.369,1016.768c-.032.121-.073.236-.1.36h1.984C922.623,1017.012,921.994,1016.895,921.369,1016.768Z" transform="translate(-829.426 -789.232)"/><path d="M943.256,1019.357s-5.125-9.792-8.518-11.335h-.1l.1,1.278h-7.174l-.214-1.134a15.663,15.663,0,0,0-5.977,8.194v.8l13.265,2.193Zm-8.518-7.935c-3.2-2.235-7.444,0-7.444,0S931.543,1009.186,934.738,1011.422Z" transform="translate(-829.431 -788.823)"/><path d="M927.644,1008.166l.214,1.134h7.174l-.1-1.278h-7.074S927.78,1008.071,927.644,1008.166Z" transform="translate(-829.724 -788.823)"/><path class="l" d="M965.247,1007.7h7.075s.077.049.214.144l1.249-6.609-8.024-.149Z" transform="translate(-831.48 -788.499)"/><path d="M972.186,1008.166l-.214,1.134H964.8l.1-1.278h-.1c-3.393,1.543-7.027,10.733-7.027,10.733l9.3-1.209c3.483-.646,7.21-1.817,10.576-2.771A19.19,19.19,0,0,0,972.186,1008.166Zm-7.387,3.256c3.2-2.235,7.444,0,7.444,0S967.994,1009.186,964.8,1011.422Z" transform="translate(-831.131 -788.823)"/><path d="M965.242,1008.022l-.1,1.278h7.174l.214-1.134c-.136-.1-.214-.144-.214-.144Z" transform="translate(-831.475 -788.823)"/><path class="i" d="M986.83,935.727l.04-.037a51.694,51.694,0,0,0-7.415-7.565H918.188a51.688,51.688,0,0,0-7.415,7.565l.04.037a10.475,10.475,0,0,0-1.815,8.5l11.6,53.687,4.912-.091,8.025-.149,3.859-.072s-3.863-29.517-6.709-50.01l18.135-4.348,18.1,4.339c-3.057,20.492-7.878,50.019-7.878,50.019l4.083.075,8.024.149,4.689.088,12.811-53.687A10.479,10.479,0,0,0,986.83,935.727Z" transform="translate(-828.842 -785.093)"/><path class="g" d="M915.929,927.67a115.829,115.829,0,0,1,12.567-8.881h36.132A115.711,115.711,0,0,1,977.2,927.67H1027.6v-9.261H860.375v9.261h55.554Z" transform="translate(-826.583 -784.639)"/><path class="g" d="M947.787,918.808H931.217a115.835,115.835,0,0,0-12.567,8.881h29.655Z" transform="translate(-829.304 -784.658)"/><path class="g" d="M952.329,918.808l-.519,8.881h29.655a115.722,115.722,0,0,0-12.568-8.881Z" transform="translate(-830.852 -784.658)"/><path class="g" d="M951.689,927.689l.519-8.881h-2.994l.519,8.881Z" transform="translate(-830.731 -784.658)"/><path class="g" d="M887.726,931.191v69.856q2.857,1.561,5.813,2.964v-72.82Z" transform="translate(-827.86 -785.236)"/><rect class="m" width="5.813" height="2.923" transform="translate(59.865 143.032)"/><path class="g" d="M1006.994,931.191v67.8q2.964-1.763,5.813-3.691V931.191Z" transform="translate(-833.429 -785.236)"/><rect class="m" width="5.813" height="2.923" transform="translate(173.565 143.032)"/></g><g transform="translate(0 19.168)"><g transform="translate(0 0)"><g transform="translate(0)"><rect class="g" width="57.673" height="40.996" rx="3.242" transform="translate(57.673 40.996) rotate(180)"/><path class="g" d="M900.673,829.9l-4.426,8.6a1.534,1.534,0,0,1-2.673.1l-5.305-8.692Z" transform="translate(-850.768 -792.257)"/></g><g transform="translate(14.681 11.598)"><rect class="c" width="27.577" height="17.269"/><path class="n" d="M864.332,802.579l13.387,8.728,14.19-8.728" transform="translate(-864.332 -802.579)"/></g></g><g transform="translate(167.616 19.588)"><path class="c" d="M1.5,0H25.222a1.5,1.5,0,0,1,1.5,1.5V12.953a1.5,1.5,0,0,1-1.5,1.5H0a0,0,0,0,1,0,0V1.5A1.5,1.5,0,0,1,1.5,0Z" transform="translate(0.019)"/><path class="c" d="M988.6,830.761l-.02,6.384,5.451-6.367Z" transform="translate(-988.579 -819.303)"/><g transform="translate(7.563 5.829)"><path class="g" d="M1007.337,826.088a1.2,1.2,0,1,0,1.207-1.2A1.2,1.2,0,0,0,1007.337,826.088Z" transform="translate(-997.018 -824.857)"/><path class="g" d="M1001.925,826.071a1.2,1.2,0,1,0,1.207-1.2A1.2,1.2,0,0,0,1001.925,826.071Z" transform="translate(-996.766 -824.857)"/><path class="g" d="M996.513,826.054a1.2,1.2,0,1,0,1.207-1.2A1.2,1.2,0,0,0,996.513,826.054Z" transform="translate(-996.513 -824.856)"/></g></g></g></g></g></svg>