<?xml version="1.0" encoding="utf-8"?>
<!-- Generator: Adobe Illustrator 24.0.3, SVG Export Plug-In . SVG Version: 6.00 Build 0)  -->
<svg version="1.1" id="Layer_1" xmlns="http://www.w3.org/2000/svg" xmlns:xlink="http://www.w3.org/1999/xlink" x="0px" y="0px"
	 viewBox="0 0 35.8 35.8" width="32" height="32" style="enable-background:new 0 0 35.8 35.8;" xml:space="preserve">
<style type="text/css">
	.st0{fill:#FFFFFF;}
</style>
<path class="st0" d="M27.7,35.8h2.7c1.4,0,2.5-1,2.7-2.4l2.7-26.9h-8.1V0h-3.2v6.6h-8.1l0.5,3.8c2.6,0.7,5,1.9,7,3.7
	c2.3,2.3,4,4.7,4,8.6V35.8z M-0.1,34.2v-1.6h24.5v1.6c0,0.9-0.7,1.6-1.6,1.6H1.6C0.7,35.8-0.1,35.1-0.1,34.2z M24.4,22.8
	c0-13-24.5-13-24.5,0H24.4z M0,26.1h24.4v3.3H0L0,26.1z"/>
</svg>