<?xml version="1.0" encoding="utf-8"?>
<!-- Generator: Adobe Illustrator 24.0.3, SVG Export Plug-In . SVG Version: 6.00 Build 0)  -->
<svg version="1.1" id="Layer_1" xmlns="http://www.w3.org/2000/svg" xmlns:xlink="http://www.w3.org/1999/xlink" x="0px" y="0px"
	 viewBox="0 0 35.8 35.8" width="32" height="32"  style="enable-background:new 0 0 35.8 35.8;" xml:space="preserve">
<style type="text/css">
	.st0{fill:#FFFFFF;stroke:#FFFFFF;stroke-width:0.5;}
</style>
<g transform="translate(0.25 0.25)">
	<path class="st0" d="M33.6,15.9L33.6,15.9C33.3,9.4,29.1,3.7,22.9,1.5C22.8,0.6,22.1,0,21.2,0h-7.1c-0.9,0-1.6,0.6-1.7,1.5
		C6.2,3.7,2,9.4,1.8,15.9h0c-1,0-1.8,0.8-1.8,1.8c0,0,0,0,0,0v1.2c0,1,0.8,1.8,1.8,1.8c0,0,0,0,0,0h31.8c1,0,1.8-0.8,1.8-1.8v-1.2
		C35.3,16.7,34.5,15.9,33.6,15.9C33.6,15.9,33.6,15.9,33.6,15.9z M12.4,2.8V13c0,0.3,0.3,0.6,0.6,0.6c0.3,0,0.6-0.3,0.6-0.6V1.8
		c0-0.3,0.3-0.6,0.6-0.6h2.9v13c0,0.3,0.3,0.6,0.6,0.6c0.3,0,0.6-0.3,0.6-0.6v-13h2.9c0.3,0,0.6,0.3,0.6,0.6c0,0,0,0,0,0V13
		c0,0.3,0.3,0.6,0.6,0.6c0.3,0,0.6-0.3,0.6-0.6c0,0,0,0,0,0V2.8c5.5,2.1,9.2,7.3,9.4,13.1H3C3.2,10,6.9,4.9,12.4,2.8z M34.2,18.8
		c0,0.3-0.3,0.6-0.6,0.6l0,0H1.8c-0.3,0-0.6-0.3-0.6-0.6l0,0v-1.2c0-0.3,0.3-0.6,0.6-0.6c0,0,0,0,0,0h31.8c0.3,0,0.6,0.3,0.6,0.6
		c0,0,0,0,0,0L34.2,18.8z"/>
	<path class="st0" d="M34.7,25.9h-2.4c-0.3-1.4-1.5-2.4-2.9-2.4H5.9c-1.6,0-2.9,1.3-2.9,2.9H0.6c-0.3,0-0.6,0.3-0.6,0.6v4.7
		c0,0.3,0.3,0.6,0.6,0.6h2.5c0.5,1.7,2.1,2.9,3.9,2.9h3.5c2.7,0,5.2-1.4,6.6-3.7c0.2-0.3,0.5-0.4,0.8-0.2c0.1,0,0.1,0.1,0.2,0.2
		c1.4,2.3,3.9,3.7,6.6,3.7h3.5c2,0,3.8-1.5,4.1-3.5h2.4c0.3,0,0.6-0.3,0.6-0.6v-4.7C35.3,26.2,35.1,25.9,34.7,25.9z M2.9,31.2H1.2
		v-1.8h1.8L2.9,31.2z M2.9,28.3H1.2v-0.6h1.8L2.9,28.3z M31.2,31.2c0,1.6-1.3,2.9-2.9,2.9h-3.5c-2.3,0-4.4-1.2-5.6-3.2
		c-0.5-0.8-1.6-1.1-2.4-0.6c-0.2,0.1-0.4,0.3-0.6,0.6c-1.2,2-3.3,3.2-5.6,3.2H7.1c-1.6,0-2.9-1.3-2.9-2.9v-4.7c0-1,0.8-1.8,1.8-1.8
		h23.6c1,0,1.8,0.8,1.8,1.8L31.2,31.2z M34.2,30.6h-1.8v-1.8h1.8L34.2,30.6z M34.2,27.7h-1.8v-0.6h1.8L34.2,27.7z"/>
</g>
</svg>
