<?xml version="1.0" encoding="utf-8"?>
<!-- Generator: Adobe Illustrator 24.0.3, SVG Export Plug-In . SVG Version: 6.00 Build 0)  -->
<svg version="1.1" id="Layer_1" xmlns="http://www.w3.org/2000/svg" xmlns:xlink="http://www.w3.org/1999/xlink" x="0px" y="0px"
	 viewBox="0 0 56 56" width="56" height="56" style="enable-background:new 0 0 56 56;" xml:space="preserve">
<style type="text/css">
	.st0{fill:#112349;}
</style>
<path class="st0" d="M27.8,24.6c-7.1-1.8-9.3-3.7-9.3-6.7c0-3.4,3.1-5.8,8.4-5.8c5.5,0,7.6,2.6,7.8,6.5h6.9
	c-0.1-5.8-4.3-10.7-10-11.9V0h-9.3v6.7C16.2,8,11.4,11.9,11.4,18c0,7.2,5.9,10.8,14.6,12.8c7.8,1.9,9.3,4.6,9.3,7.5
	c0,2.1-1.5,5.6-8.4,5.6c-6.4,0-8.9-2.9-9.3-6.5h-6.8c0.4,6.8,5.5,10.6,11.4,11.9V56h9.3v-6.7c6.1-1.2,10.9-4.7,10.9-11
	C42.5,29.4,34.9,26.4,27.8,24.6z"/>
</svg>
