<?xml version="1.0" encoding="utf-8"?>
<!-- Generator: Adobe Illustrator 24.0.3, SVG Export Plug-In . SVG Version: 6.00 Build 0)  -->
<svg version="1.1" id="Layer_1" xmlns="http://www.w3.org/2000/svg" xmlns:xlink="http://www.w3.org/1999/xlink" x="0px" y="0px"
	 viewBox="0 0 27 27" style="enable-background:new 0 0 27 27;" width="27" height="27" xml:space="preserve">
<style type="text/css">
	.st0{fill:#FF3E46;}
</style>
<path class="st0" d="M24.9,2.1c-2.8-2.8-7.3-2.8-10.1,0c0,0,0,0,0,0L8.5,8.5l-6.4,6.4c-2.8,2.8-2.9,7.3-0.1,10.1s7.3,2.9,10.1,0.1
	c0,0,0.1-0.1,0.1-0.1l6.4-6.4l6.4-6.4C27.7,9.4,27.7,4.9,24.9,2.1L24.9,2.1z M10.8,23.6c-2.1,2-5.4,2-7.4-0.1c-2-2-2-5.2,0-7.3
	l5.7-5.7l7.4,7.4L10.8,23.6z M23.6,10.8l-5.7,5.7l-7.4-7.4l5.7-5.7c2.1-2,5.4-2,7.4,0.1C25.6,5.5,25.6,8.8,23.6,10.8z"/>
</svg>
