<?xml version="1.0" encoding="utf-8"?>
<!-- Generator: Adobe Illustrator 24.0.3, SVG Export Plug-In . SVG Version: 6.00 Build 0)  -->
<svg version="1.1" id="Layer_1" xmlns="http://www.w3.org/2000/svg" xmlns:xlink="http://www.w3.org/1999/xlink" x="0px" y="0px"
	 viewBox="0 0 24 24" width="20" height="20" style="enable-background:new 0 0 24 24;" xml:space="preserve">
<style type="text/css">
	.st0{fill:none;}
	.st1{fill:#102248;}
</style>
<path class="st0" d="M0,0h24v24H0V0z"/>
<path class="st1" d="M12,3c1.7,0,3,1.3,3,3s-1.3,3-3,3S9,7.7,9,6C9,4.3,10.3,3,12,3 M12,16.5c4,0,8.7,1.9,9,3V21H3v-1.5
	C3.3,18.4,8,16.5,12,16.5 M12,0C8.7,0,6,2.7,6,6s2.7,6,6,6s6-2.7,6-6S15.3,0,12,0z M12,13.5c-4,0-12,2-12,6V24h24v-4.5
	C24,15.5,16,13.5,12,13.5z"/>
</svg>
