<?xml version="1.0" encoding="utf-8"?>
<!-- Generator: Adobe Illustrator 24.0.3, SVG Export Plug-In . SVG Version: 6.00 Build 0)  -->
<svg version="1.1" id="Layer_1" xmlns="http://www.w3.org/2000/svg" xmlns:xlink="http://www.w3.org/1999/xlink" x="0px" y="0px"
	 viewBox="0 0 35.8 35.8" width="32" height="32" style="enable-background:new 0 0 35.8 35.8;" xml:space="preserve">
<style type="text/css">
	.st0{fill:#FFFFFF;}
</style>
<g transform="translate(-41.232 0)">
	<g transform="translate(41.232 0)">
		<g transform="translate(0 0)">
			<path class="st0" d="M21.2,4.2C20.4,3,19.7,1.9,19,0.9c-0.1-0.1-0.2-0.3-0.4-0.4c-0.6-0.4-1.3-0.2-1.7,0.4c0,0,0,0,0,0
				c-0.6,1-1.3,2.1-2.2,3.3c-3.8,5.5-9.4,13.9-9.4,18.7c0,3.4,1.3,6.6,3.7,8.9c2.4,2.4,5.6,3.7,8.9,3.7c7,0,12.6-5.7,12.7-12.7
				C30.6,18.1,25,9.8,21.2,4.2z M25.1,30.1c-1.9,1.9-4.5,3-7.2,3c-2.7,0-5.3-1.1-7.2-3c-1.9-1.9-3-4.5-3-7.2c0-4,5.4-12,9-17.3
				c0.4-0.6,0.8-1.2,1.2-1.8c0.4,0.5,0.8,1.1,1.2,1.8c3.6,5.4,9,13.3,9,17.3C28.1,25.6,27,28.2,25.1,30.1L25.1,30.1z"/>
		</g>
	</g>
</g>
</svg>
